<svg width="215" height="44" viewBox="0 0 215 44" fill="none" xmlns="http://www.w3.org/2000/svg">
<rect x="0.5" y="4.5" width="210" height="39" stroke="#121212"/>
<rect x="4" width="211" height="40" fill="#121212"/>
<path d="M36.3713 23.236C35.6713 23.684 34.9013 23.866 34.0753 23.866C31.8213 23.866 30.1833 22.256 30.1833 20.1C30.1833 17.916 31.8213 16.334 34.0893 16.334C35.1953 16.334 36.1193 16.684 36.9313 17.468L37.7993 16.6C36.9033 15.606 35.5873 15.088 34.0333 15.088C30.9953 15.088 28.7833 17.202 28.7833 20.1C28.7833 22.998 30.9953 25.112 34.0053 25.112C35.3773 25.112 36.7353 24.692 37.7153 23.866V20.044H36.3713V23.236ZM46.9058 21.332C46.9058 19.05 45.3798 17.51 43.2378 17.51C41.0958 17.51 39.5138 19.092 39.5138 21.29C39.5138 23.502 41.1098 25.084 43.5038 25.084C44.7358 25.084 45.7578 24.664 46.4298 23.88L45.6878 23.012C45.1418 23.614 44.4138 23.908 43.5458 23.908C42.0758 23.908 41.0258 23.04 40.8578 21.738H46.8778C46.8918 21.612 46.9058 21.444 46.9058 21.332ZM43.2378 18.644C44.5398 18.644 45.4778 19.526 45.6178 20.772H40.8578C40.9978 19.512 41.9498 18.644 43.2378 18.644ZM52.524 23.6C52.244 23.824 51.866 23.95 51.474 23.95C50.732 23.95 50.312 23.502 50.312 22.704V18.686H52.44V17.58H50.312V15.956H48.968V17.58H47.708V18.686H48.968V22.76C48.968 24.258 49.822 25.084 51.32 25.084C51.922 25.084 52.538 24.916 52.944 24.566L52.524 23.6ZM61.0307 17.51C59.8407 17.51 58.7347 17.846 57.9647 18.462L58.5247 19.47C59.0987 18.98 59.9947 18.672 60.8767 18.672C62.2067 18.672 62.8647 19.33 62.8647 20.464V20.73H60.7367C58.5247 20.73 57.7547 21.71 57.7547 22.9C57.7547 24.188 58.8187 25.084 60.4987 25.084C61.6607 25.084 62.4867 24.692 62.9347 24.02V25H64.2087V20.52C64.2087 18.49 63.0607 17.51 61.0307 17.51ZM60.7227 24.048C59.7007 24.048 59.0847 23.586 59.0847 22.844C59.0847 22.214 59.4627 21.696 60.7927 21.696H62.8647V22.732C62.5287 23.586 61.7307 24.048 60.7227 24.048ZM73.1716 15.634C73.5636 15.634 73.9276 15.774 74.2076 15.984L74.6136 14.962C74.2356 14.668 73.6756 14.528 73.1016 14.528C71.5196 14.528 70.6516 15.48 70.6516 16.922V17.58H69.3916V18.686H70.6516V25H71.9956V18.686H74.1236V17.58H71.9676V16.936C71.9676 16.082 72.3736 15.634 73.1716 15.634ZM77.8003 18.826V17.58H76.5123V25H77.8563V21.304C77.8563 19.68 78.7523 18.798 80.1943 18.798C80.2923 18.798 80.3903 18.798 80.5023 18.812V17.51C79.2003 17.51 78.2763 17.958 77.8003 18.826ZM88.7964 21.332C88.7964 19.05 87.2704 17.51 85.1284 17.51C82.9864 17.51 81.4044 19.092 81.4044 21.29C81.4044 23.502 83.0004 25.084 85.3944 25.084C86.6264 25.084 87.6484 24.664 88.3204 23.88L87.5784 23.012C87.0324 23.614 86.3044 23.908 85.4364 23.908C83.9664 23.908 82.9164 23.04 82.7484 21.738H88.7684C88.7824 21.612 88.7964 21.444 88.7964 21.332ZM85.1284 18.644C86.4304 18.644 87.3684 19.526 87.5084 20.772H82.7484C82.8884 19.512 83.8404 18.644 85.1284 18.644ZM97.3687 21.332C97.3687 19.05 95.8427 17.51 93.7007 17.51C91.5587 17.51 89.9767 19.092 89.9767 21.29C89.9767 23.502 91.5727 25.084 93.9667 25.084C95.1987 25.084 96.2207 24.664 96.8927 23.88L96.1507 23.012C95.6047 23.614 94.8767 23.908 94.0087 23.908C92.5387 23.908 91.4887 23.04 91.3207 21.738H97.3407C97.3547 21.612 97.3687 21.444 97.3687 21.332ZM93.7007 18.644C95.0027 18.644 95.9407 19.526 96.0807 20.772H91.3207C91.4607 19.512 92.4127 18.644 93.7007 18.644ZM106.229 25.084C107.559 25.084 108.665 24.524 109.253 23.488L108.231 22.844C107.755 23.572 107.027 23.908 106.215 23.908C104.759 23.908 103.667 22.9 103.667 21.29C103.667 19.708 104.759 18.686 106.215 18.686C107.027 18.686 107.755 19.022 108.231 19.75L109.253 19.092C108.665 18.056 107.559 17.51 106.229 17.51C103.947 17.51 102.309 19.078 102.309 21.29C102.309 23.502 103.947 25.084 106.229 25.084ZM114.061 25.084C116.287 25.084 117.911 23.502 117.911 21.29C117.911 19.078 116.287 17.51 114.061 17.51C111.835 17.51 110.197 19.078 110.197 21.29C110.197 23.502 111.835 25.084 114.061 25.084ZM114.061 23.908C112.633 23.908 111.555 22.872 111.555 21.29C111.555 19.708 112.633 18.686 114.061 18.686C115.489 18.686 116.553 19.708 116.553 21.29C116.553 22.872 115.489 23.908 114.061 23.908ZM123.732 17.51C122.556 17.51 121.604 17.944 121.058 18.7V17.58H119.77V25H121.114V21.178C121.114 19.568 122.038 18.714 123.466 18.714C124.74 18.714 125.468 19.428 125.468 20.884V25H126.812V20.73C126.812 18.546 125.538 17.51 123.732 17.51ZM131.427 25.084C133.401 25.084 134.633 24.23 134.633 22.886C134.633 20.002 129.929 21.43 129.929 19.68C129.929 19.092 130.503 18.658 131.679 18.658C132.407 18.658 133.149 18.812 133.821 19.246L134.395 18.182C133.751 17.762 132.659 17.51 131.693 17.51C129.789 17.51 128.599 18.406 128.599 19.736C128.599 22.69 133.289 21.248 133.289 22.914C133.289 23.544 132.771 23.922 131.525 23.922C130.559 23.922 129.551 23.6 128.921 23.152L128.361 24.216C128.977 24.706 130.195 25.084 131.427 25.084ZM141.885 17.58V21.416C141.885 23.012 140.989 23.88 139.589 23.88C138.315 23.88 137.587 23.152 137.587 21.696V17.58H136.243V21.85C136.243 24.034 137.517 25.084 139.435 25.084C140.485 25.084 141.409 24.65 141.955 23.88V25H143.229V17.58H141.885ZM145.788 25H147.132V14.612H145.788V25ZM153.628 23.6C153.348 23.824 152.97 23.95 152.578 23.95C151.836 23.95 151.416 23.502 151.416 22.704V18.686H153.544V17.58H151.416V15.956H150.072V17.58H148.812V18.686H150.072V22.76C150.072 24.258 150.926 25.084 152.424 25.084C153.026 25.084 153.642 24.916 154.048 24.566L153.628 23.6ZM158.374 17.51C157.184 17.51 156.078 17.846 155.308 18.462L155.868 19.47C156.442 18.98 157.338 18.672 158.22 18.672C159.55 18.672 160.208 19.33 160.208 20.464V20.73H158.08C155.868 20.73 155.098 21.71 155.098 22.9C155.098 24.188 156.162 25.084 157.842 25.084C159.004 25.084 159.83 24.692 160.278 24.02V25H161.552V20.52C161.552 18.49 160.404 17.51 158.374 17.51ZM158.066 24.048C157.044 24.048 156.428 23.586 156.428 22.844C156.428 22.214 156.806 21.696 158.136 21.696H160.208V22.732C159.872 23.586 159.074 24.048 158.066 24.048ZM167.792 23.6C167.512 23.824 167.134 23.95 166.742 23.95C166 23.95 165.58 23.502 165.58 22.704V18.686H167.708V17.58H165.58V15.956H164.236V17.58H162.976V18.686H164.236V22.76C164.236 24.258 165.09 25.084 166.588 25.084C167.19 25.084 167.806 24.916 168.212 24.566L167.792 23.6ZM170.509 16.152C171.041 16.152 171.419 15.76 171.419 15.256C171.419 14.78 171.027 14.402 170.509 14.402C169.991 14.402 169.599 14.794 169.599 15.284C169.599 15.774 169.991 16.152 170.509 16.152ZM169.837 25H171.181V17.58H169.837V25ZM176.925 25.084C179.151 25.084 180.775 23.502 180.775 21.29C180.775 19.078 179.151 17.51 176.925 17.51C174.699 17.51 173.061 19.078 173.061 21.29C173.061 23.502 174.699 25.084 176.925 25.084ZM176.925 23.908C175.497 23.908 174.419 22.872 174.419 21.29C174.419 19.708 175.497 18.686 176.925 18.686C178.353 18.686 179.417 19.708 179.417 21.29C179.417 22.872 178.353 23.908 176.925 23.908ZM186.595 17.51C185.419 17.51 184.467 17.944 183.921 18.7V17.58H182.633V25H183.977V21.178C183.977 19.568 184.901 18.714 186.329 18.714C187.603 18.714 188.331 19.428 188.331 20.884V25H189.675V20.73C189.675 18.546 188.401 17.51 186.595 17.51Z" fill="white"/>
</svg>
