<svg width="240" height="40" viewBox="0 0 240 40" fill="none" xmlns="http://www.w3.org/2000/svg">
<rect width="240" height="40" fill="#121212"/>
<path d="M57.3183 19.752H58.4703V23.028C58.0543 23.372 57.5703 23.636 57.0183 23.82C56.4663 24.004 55.8903 24.096 55.2903 24.096C54.4423 24.096 53.6783 23.912 52.9983 23.544C52.3183 23.168 51.7823 22.656 51.3903 22.008C51.0063 21.352 50.8143 20.616 50.8143 19.8C50.8143 18.984 51.0063 18.248 51.3903 17.592C51.7823 16.936 52.3183 16.424 52.9983 16.056C53.6863 15.688 54.4583 15.504 55.3143 15.504C55.9863 15.504 56.5943 15.616 57.1383 15.84C57.6903 16.056 58.1583 16.376 58.5423 16.8L57.7983 17.544C57.1263 16.896 56.3143 16.572 55.3623 16.572C54.7223 16.572 54.1463 16.712 53.6343 16.992C53.1303 17.264 52.7343 17.648 52.4463 18.144C52.1583 18.632 52.0143 19.184 52.0143 19.8C52.0143 20.408 52.1583 20.96 52.4463 21.456C52.7343 21.944 53.1303 22.328 53.6343 22.608C54.1463 22.888 54.7183 23.028 55.3503 23.028C56.1023 23.028 56.7583 22.848 57.3183 22.488V19.752ZM66.3478 20.856C66.3478 20.944 66.3398 21.06 66.3238 21.204H61.1638C61.2358 21.764 61.4798 22.216 61.8958 22.56C62.3198 22.896 62.8438 23.064 63.4678 23.064C64.2278 23.064 64.8398 22.808 65.3038 22.296L65.9398 23.04C65.6518 23.376 65.2918 23.632 64.8598 23.808C64.4358 23.984 63.9598 24.072 63.4318 24.072C62.7598 24.072 62.1638 23.936 61.6438 23.664C61.1238 23.384 60.7198 22.996 60.4318 22.5C60.1518 22.004 60.0118 21.444 60.0118 20.82C60.0118 20.204 60.1478 19.648 60.4198 19.152C60.6998 18.656 61.0798 18.272 61.5598 18C62.0478 17.72 62.5958 17.58 63.2038 17.58C63.8118 17.58 64.3518 17.72 64.8238 18C65.3038 18.272 65.6758 18.656 65.9398 19.152C66.2118 19.648 66.3478 20.216 66.3478 20.856ZM63.2038 18.552C62.6518 18.552 62.1878 18.72 61.8118 19.056C61.4438 19.392 61.2278 19.832 61.1638 20.376H65.2438C65.1798 19.84 64.9598 19.404 64.5838 19.068C64.2158 18.724 63.7558 18.552 63.2038 18.552ZM71.5235 23.628C71.3555 23.772 71.1475 23.884 70.8995 23.964C70.6515 24.036 70.3955 24.072 70.1315 24.072C69.4915 24.072 68.9955 23.9 68.6435 23.556C68.2915 23.212 68.1155 22.72 68.1155 22.08V18.588H67.0355V17.64H68.1155V16.248H69.2675V17.64H71.0915V18.588H69.2675V22.032C69.2675 22.376 69.3515 22.64 69.5195 22.824C69.6955 23.008 69.9435 23.1 70.2635 23.1C70.6155 23.1 70.9155 23 71.1635 22.8L71.5235 23.628ZM78.4549 17.58C79.3349 17.58 80.0069 17.796 80.4709 18.228C80.9429 18.66 81.1789 19.304 81.1789 20.16V24H80.0869V23.16C79.8949 23.456 79.6189 23.684 79.2589 23.844C78.9069 23.996 78.4869 24.072 77.9989 24.072C77.2869 24.072 76.7149 23.9 76.2829 23.556C75.8589 23.212 75.6469 22.76 75.6469 22.2C75.6469 21.64 75.8509 21.192 76.2589 20.856C76.6669 20.512 77.3149 20.34 78.2029 20.34H80.0269V20.112C80.0269 19.616 79.8829 19.236 79.5949 18.972C79.3069 18.708 78.8829 18.576 78.3229 18.576C77.9469 18.576 77.5789 18.64 77.2189 18.768C76.8589 18.888 76.5549 19.052 76.3069 19.26L75.8269 18.396C76.1549 18.132 76.5469 17.932 77.0029 17.796C77.4589 17.652 77.9429 17.58 78.4549 17.58ZM78.1909 23.184C78.6309 23.184 79.0109 23.088 79.3309 22.896C79.6509 22.696 79.8829 22.416 80.0269 22.056V21.168H78.2509C77.2749 21.168 76.7869 21.496 76.7869 22.152C76.7869 22.472 76.9109 22.724 77.1589 22.908C77.4069 23.092 77.7509 23.184 78.1909 23.184ZM88.8614 15.972C88.1734 15.972 87.8294 16.344 87.8294 17.088V17.64H89.6774V18.588H87.8534V24H86.7014V18.588H85.6214V17.64H86.7014V17.076C86.7014 16.444 86.8854 15.944 87.2534 15.576C87.6214 15.208 88.1374 15.024 88.8014 15.024C89.0574 15.024 89.2974 15.056 89.5214 15.12C89.7454 15.184 89.9374 15.276 90.0974 15.396L89.7494 16.272C89.4854 16.072 89.1894 15.972 88.8614 15.972ZM92.8288 18.708C93.0288 18.34 93.3248 18.06 93.7168 17.868C94.1088 17.676 94.5848 17.58 95.1448 17.58V18.696C95.0808 18.688 94.9928 18.684 94.8808 18.684C94.2568 18.684 93.7648 18.872 93.4048 19.248C93.0528 19.616 92.8768 20.144 92.8768 20.832V24H91.7248V17.64H92.8288V18.708ZM102.254 20.856C102.254 20.944 102.246 21.06 102.23 21.204H97.0701C97.1421 21.764 97.3861 22.216 97.8021 22.56C98.2261 22.896 98.7501 23.064 99.3741 23.064C100.134 23.064 100.746 22.808 101.21 22.296L101.846 23.04C101.558 23.376 101.198 23.632 100.766 23.808C100.342 23.984 99.8661 24.072 99.3381 24.072C98.6661 24.072 98.0701 23.936 97.5501 23.664C97.0301 23.384 96.6261 22.996 96.3381 22.5C96.0581 22.004 95.9181 21.444 95.9181 20.82C95.9181 20.204 96.0541 19.648 96.3261 19.152C96.6061 18.656 96.9861 18.272 97.4661 18C97.9541 17.72 98.5021 17.58 99.1101 17.58C99.7181 17.58 100.258 17.72 100.73 18C101.21 18.272 101.582 18.656 101.846 19.152C102.118 19.648 102.254 20.216 102.254 20.856ZM99.1101 18.552C98.5581 18.552 98.0941 18.72 97.7181 19.056C97.3501 19.392 97.1341 19.832 97.0701 20.376H101.15C101.086 19.84 100.866 19.404 100.49 19.068C100.122 18.724 99.6621 18.552 99.1101 18.552ZM109.602 20.856C109.602 20.944 109.594 21.06 109.578 21.204H104.418C104.49 21.764 104.734 22.216 105.15 22.56C105.574 22.896 106.098 23.064 106.722 23.064C107.482 23.064 108.094 22.808 108.558 22.296L109.194 23.04C108.906 23.376 108.546 23.632 108.114 23.808C107.69 23.984 107.214 24.072 106.686 24.072C106.014 24.072 105.418 23.936 104.898 23.664C104.378 23.384 103.974 22.996 103.686 22.5C103.406 22.004 103.266 21.444 103.266 20.82C103.266 20.204 103.402 19.648 103.674 19.152C103.954 18.656 104.334 18.272 104.814 18C105.302 17.72 105.85 17.58 106.458 17.58C107.066 17.58 107.606 17.72 108.078 18C108.558 18.272 108.93 18.656 109.194 19.152C109.466 19.648 109.602 20.216 109.602 20.856ZM106.458 18.552C105.906 18.552 105.442 18.72 105.066 19.056C104.698 19.392 104.482 19.832 104.418 20.376H108.498C108.434 19.84 108.214 19.404 107.838 19.068C107.47 18.724 107.01 18.552 106.458 18.552ZM117.196 24.072C116.548 24.072 115.968 23.932 115.456 23.652C114.952 23.372 114.556 22.988 114.268 22.5C113.98 22.004 113.836 21.444 113.836 20.82C113.836 20.196 113.98 19.64 114.268 19.152C114.556 18.656 114.952 18.272 115.456 18C115.968 17.72 116.548 17.58 117.196 17.58C117.772 17.58 118.284 17.696 118.732 17.928C119.188 18.16 119.54 18.496 119.788 18.936L118.912 19.5C118.712 19.196 118.464 18.968 118.168 18.816C117.872 18.664 117.544 18.588 117.184 18.588C116.768 18.588 116.392 18.68 116.056 18.864C115.728 19.048 115.468 19.312 115.276 19.656C115.092 19.992 115 20.38 115 20.82C115 21.268 115.092 21.664 115.276 22.008C115.468 22.344 115.728 22.604 116.056 22.788C116.392 22.972 116.768 23.064 117.184 23.064C117.544 23.064 117.872 22.988 118.168 22.836C118.464 22.684 118.712 22.456 118.912 22.152L119.788 22.704C119.54 23.144 119.188 23.484 118.732 23.724C118.284 23.956 117.772 24.072 117.196 24.072ZM123.91 24.072C123.278 24.072 122.71 23.932 122.206 23.652C121.702 23.372 121.306 22.988 121.018 22.5C120.738 22.004 120.598 21.444 120.598 20.82C120.598 20.196 120.738 19.64 121.018 19.152C121.306 18.656 121.702 18.272 122.206 18C122.71 17.72 123.278 17.58 123.91 17.58C124.542 17.58 125.106 17.72 125.602 18C126.106 18.272 126.498 18.656 126.778 19.152C127.066 19.64 127.21 20.196 127.21 20.82C127.21 21.444 127.066 22.004 126.778 22.5C126.498 22.988 126.106 23.372 125.602 23.652C125.106 23.932 124.542 24.072 123.91 24.072ZM123.91 23.064C124.318 23.064 124.682 22.972 125.002 22.788C125.33 22.596 125.586 22.332 125.77 21.996C125.954 21.652 126.046 21.26 126.046 20.82C126.046 20.38 125.954 19.992 125.77 19.656C125.586 19.312 125.33 19.048 125.002 18.864C124.682 18.68 124.318 18.588 123.91 18.588C123.502 18.588 123.134 18.68 122.806 18.864C122.486 19.048 122.23 19.312 122.038 19.656C121.854 19.992 121.762 20.38 121.762 20.82C121.762 21.26 121.854 21.652 122.038 21.996C122.23 22.332 122.486 22.596 122.806 22.788C123.134 22.972 123.502 23.064 123.91 23.064ZM132.199 17.58C133.007 17.58 133.647 17.816 134.119 18.288C134.599 18.752 134.839 19.436 134.839 20.34V24H133.687V20.472C133.687 19.856 133.539 19.392 133.243 19.08C132.947 18.768 132.523 18.612 131.971 18.612C131.347 18.612 130.855 18.796 130.495 19.164C130.135 19.524 129.955 20.044 129.955 20.724V24H128.803V17.64H129.907V18.6C130.139 18.272 130.451 18.02 130.843 17.844C131.243 17.668 131.695 17.58 132.199 17.58ZM138.795 24.072C138.275 24.072 137.775 24.004 137.295 23.868C136.815 23.724 136.439 23.544 136.167 23.328L136.647 22.416C136.927 22.616 137.267 22.776 137.667 22.896C138.067 23.016 138.471 23.076 138.879 23.076C139.887 23.076 140.391 22.788 140.391 22.212C140.391 22.02 140.323 21.868 140.187 21.756C140.051 21.644 139.879 21.564 139.671 21.516C139.471 21.46 139.183 21.4 138.807 21.336C138.295 21.256 137.875 21.164 137.547 21.06C137.227 20.956 136.951 20.78 136.719 20.532C136.487 20.284 136.371 19.936 136.371 19.488C136.371 18.912 136.611 18.452 137.091 18.108C137.571 17.756 138.215 17.58 139.023 17.58C139.447 17.58 139.871 17.632 140.295 17.736C140.719 17.84 141.067 17.98 141.339 18.156L140.847 19.068C140.327 18.732 139.715 18.564 139.011 18.564C138.523 18.564 138.151 18.644 137.895 18.804C137.639 18.964 137.511 19.176 137.511 19.44C137.511 19.648 137.583 19.812 137.727 19.932C137.871 20.052 138.047 20.14 138.255 20.196C138.471 20.252 138.771 20.316 139.155 20.388C139.667 20.476 140.079 20.572 140.391 20.676C140.711 20.772 140.983 20.94 141.207 21.18C141.431 21.42 141.543 21.756 141.543 22.188C141.543 22.764 141.295 23.224 140.799 23.568C140.311 23.904 139.643 24.072 138.795 24.072ZM148.911 17.64V24H147.819V23.04C147.587 23.368 147.279 23.624 146.895 23.808C146.519 23.984 146.107 24.072 145.659 24.072C144.811 24.072 144.143 23.84 143.655 23.376C143.167 22.904 142.923 22.212 142.923 21.3V17.64H144.075V21.168C144.075 21.784 144.223 22.252 144.519 22.572C144.815 22.884 145.239 23.04 145.791 23.04C146.399 23.04 146.879 22.856 147.231 22.488C147.583 22.12 147.759 21.6 147.759 20.928V17.64H148.911ZM151.104 15.096H152.256V24H151.104V15.096ZM158.184 23.628C158.016 23.772 157.808 23.884 157.56 23.964C157.312 24.036 157.056 24.072 156.792 24.072C156.152 24.072 155.656 23.9 155.304 23.556C154.952 23.212 154.776 22.72 154.776 22.08V18.588H153.696V17.64H154.776V16.248H155.928V17.64H157.752V18.588H155.928V22.032C155.928 22.376 156.012 22.64 156.18 22.824C156.356 23.008 156.604 23.1 156.924 23.1C157.276 23.1 157.576 23 157.824 22.8L158.184 23.628ZM161.892 17.58C162.772 17.58 163.444 17.796 163.908 18.228C164.38 18.66 164.616 19.304 164.616 20.16V24H163.524V23.16C163.332 23.456 163.056 23.684 162.696 23.844C162.344 23.996 161.924 24.072 161.436 24.072C160.724 24.072 160.152 23.9 159.72 23.556C159.296 23.212 159.084 22.76 159.084 22.2C159.084 21.64 159.288 21.192 159.696 20.856C160.104 20.512 160.752 20.34 161.64 20.34H163.464V20.112C163.464 19.616 163.32 19.236 163.032 18.972C162.744 18.708 162.32 18.576 161.76 18.576C161.384 18.576 161.016 18.64 160.656 18.768C160.296 18.888 159.992 19.052 159.744 19.26L159.264 18.396C159.592 18.132 159.984 17.932 160.44 17.796C160.896 17.652 161.38 17.58 161.892 17.58ZM161.628 23.184C162.068 23.184 162.448 23.088 162.768 22.896C163.088 22.696 163.32 22.416 163.464 22.056V21.168H161.688C160.712 21.168 160.224 21.496 160.224 22.152C160.224 22.472 160.348 22.724 160.596 22.908C160.844 23.092 161.188 23.184 161.628 23.184ZM170.324 23.628C170.156 23.772 169.948 23.884 169.7 23.964C169.452 24.036 169.196 24.072 168.932 24.072C168.292 24.072 167.796 23.9 167.444 23.556C167.092 23.212 166.916 22.72 166.916 22.08V18.588H165.836V17.64H166.916V16.248H168.068V17.64H169.892V18.588H168.068V22.032C168.068 22.376 168.152 22.64 168.32 22.824C168.496 23.008 168.744 23.1 169.064 23.1C169.416 23.1 169.716 23 169.964 22.8L170.324 23.628ZM171.717 17.64H172.869V24H171.717V17.64ZM172.293 16.416C172.069 16.416 171.881 16.344 171.729 16.2C171.585 16.056 171.513 15.88 171.513 15.672C171.513 15.464 171.585 15.288 171.729 15.144C171.881 14.992 172.069 14.916 172.293 14.916C172.517 14.916 172.701 14.988 172.845 15.132C172.997 15.268 173.073 15.44 173.073 15.648C173.073 15.864 172.997 16.048 172.845 16.2C172.701 16.344 172.517 16.416 172.293 16.416ZM177.793 24.072C177.161 24.072 176.593 23.932 176.089 23.652C175.585 23.372 175.189 22.988 174.901 22.5C174.621 22.004 174.481 21.444 174.481 20.82C174.481 20.196 174.621 19.64 174.901 19.152C175.189 18.656 175.585 18.272 176.089 18C176.593 17.72 177.161 17.58 177.793 17.58C178.425 17.58 178.989 17.72 179.485 18C179.989 18.272 180.381 18.656 180.661 19.152C180.949 19.64 181.093 20.196 181.093 20.82C181.093 21.444 180.949 22.004 180.661 22.5C180.381 22.988 179.989 23.372 179.485 23.652C178.989 23.932 178.425 24.072 177.793 24.072ZM177.793 23.064C178.201 23.064 178.565 22.972 178.885 22.788C179.213 22.596 179.469 22.332 179.653 21.996C179.837 21.652 179.929 21.26 179.929 20.82C179.929 20.38 179.837 19.992 179.653 19.656C179.469 19.312 179.213 19.048 178.885 18.864C178.565 18.68 178.201 18.588 177.793 18.588C177.385 18.588 177.017 18.68 176.689 18.864C176.369 19.048 176.113 19.312 175.921 19.656C175.737 19.992 175.645 20.38 175.645 20.82C175.645 21.26 175.737 21.652 175.921 21.996C176.113 22.332 176.369 22.596 176.689 22.788C177.017 22.972 177.385 23.064 177.793 23.064ZM186.082 17.58C186.89 17.58 187.53 17.816 188.002 18.288C188.482 18.752 188.722 19.436 188.722 20.34V24H187.57V20.472C187.57 19.856 187.422 19.392 187.126 19.08C186.83 18.768 186.406 18.612 185.854 18.612C185.23 18.612 184.738 18.796 184.378 19.164C184.018 19.524 183.838 20.044 183.838 20.724V24H182.686V17.64H183.79V18.6C184.022 18.272 184.334 18.02 184.726 17.844C185.126 17.668 185.578 17.58 186.082 17.58Z" fill="#8792A7"/>
</svg>
