<svg width="100" height="45" viewBox="0 0 100 45" fill="none" xmlns="http://www.w3.org/2000/svg">
<path d="M5 4H1V44H96V40" stroke="#121212"/>
<path d="M34.852 25.112C36.378 25.112 37.694 24.58 38.59 23.572L37.68 22.69C36.924 23.488 36 23.866 34.922 23.866C32.71 23.866 31.072 22.27 31.072 20.1C31.072 17.93 32.71 16.334 34.922 16.334C36 16.334 36.924 16.698 37.68 17.496L38.59 16.614C37.694 15.606 36.378 15.088 34.866 15.088C31.884 15.088 29.672 17.202 29.672 20.1C29.672 22.998 31.884 25.112 34.852 25.112ZM42.9975 17.51C41.8075 17.51 40.7015 17.846 39.9315 18.462L40.4915 19.47C41.0655 18.98 41.9615 18.672 42.8435 18.672C44.1735 18.672 44.8315 19.33 44.8315 20.464V20.73H42.7035C40.4915 20.73 39.7215 21.71 39.7215 22.9C39.7215 24.188 40.7855 25.084 42.4655 25.084C43.6275 25.084 44.4535 24.692 44.9015 24.02V25H46.1755V20.52C46.1755 18.49 45.0275 17.51 42.9975 17.51ZM42.6895 24.048C41.6675 24.048 41.0515 23.586 41.0515 22.844C41.0515 22.214 41.4295 21.696 42.7595 21.696H44.8315V22.732C44.4955 23.586 43.6975 24.048 42.6895 24.048ZM48.6627 25H50.0067V14.612H48.6627V25ZM52.5728 25H53.9168V14.612H52.5728V25ZM65.8148 17.58V21.416C65.8148 23.012 64.9188 23.88 63.5188 23.88C62.2448 23.88 61.5168 23.152 61.5168 21.696V17.58H60.1728V21.85C60.1728 24.034 61.4468 25.084 63.3648 25.084C64.4148 25.084 65.3388 24.65 65.8848 23.88V25H67.1588V17.58H65.8148ZM71.8454 25.084C73.8194 25.084 75.0514 24.23 75.0514 22.886C75.0514 20.002 70.3474 21.43 70.3474 19.68C70.3474 19.092 70.9214 18.658 72.0974 18.658C72.8254 18.658 73.5674 18.812 74.2394 19.246L74.8134 18.182C74.1694 17.762 73.0774 17.51 72.1114 17.51C70.2074 17.51 69.0174 18.406 69.0174 19.736C69.0174 22.69 73.7074 21.248 73.7074 22.914C73.7074 23.544 73.1894 23.922 71.9434 23.922C70.9774 23.922 69.9694 23.6 69.3394 23.152L68.7794 24.216C69.3954 24.706 70.6134 25.084 71.8454 25.084Z" fill="#121212"/>
<rect x="5.5" y="0.5" width="94" height="39" stroke="#121212"/>
</svg>
