<svg width="216" height="44" viewBox="0 0 216 44" fill="none" xmlns="http://www.w3.org/2000/svg">
<rect x="1" y="4.5" width="210" height="39" stroke="#121212"/>
<rect x="4.5" width="211" height="40" fill="#121212"/>
<path d="M96.1356 25.112C98.7256 25.112 99.9296 23.824 99.9296 22.326C99.9296 18.728 93.9936 20.226 93.9936 17.832C93.9936 16.978 94.7076 16.278 96.3736 16.278C97.2416 16.278 98.2076 16.53 99.0616 17.076L99.5236 15.956C98.7116 15.396 97.5216 15.088 96.3736 15.088C93.7976 15.088 92.6216 16.376 92.6216 17.888C92.6216 21.528 98.5576 20.016 98.5576 22.41C98.5576 23.264 97.8296 23.922 96.1356 23.922C94.8756 23.922 93.6296 23.446 92.9016 22.788L92.3836 23.88C93.1676 24.608 94.6376 25.112 96.1356 25.112ZM108.485 21.332C108.485 19.05 106.959 17.51 104.817 17.51C102.675 17.51 101.093 19.092 101.093 21.29C101.093 23.502 102.689 25.084 105.083 25.084C106.315 25.084 107.337 24.664 108.009 23.88L107.267 23.012C106.721 23.614 105.993 23.908 105.125 23.908C103.655 23.908 102.605 23.04 102.437 21.738H108.457C108.471 21.612 108.485 21.444 108.485 21.332ZM104.817 18.644C106.119 18.644 107.057 19.526 107.197 20.772H102.437C102.577 19.512 103.529 18.644 104.817 18.644ZM114.313 17.51C113.137 17.51 112.185 17.944 111.639 18.7V17.58H110.351V25H111.695V21.178C111.695 19.568 112.619 18.714 114.047 18.714C115.321 18.714 116.049 19.428 116.049 20.884V25H117.393V20.73C117.393 18.546 116.119 17.51 114.313 17.51ZM125.577 14.612V18.7C124.961 17.902 124.037 17.51 122.987 17.51C120.817 17.51 119.235 19.022 119.235 21.29C119.235 23.558 120.817 25.084 122.987 25.084C124.079 25.084 125.031 24.664 125.633 23.824V25H126.921V14.612H125.577ZM123.099 23.908C121.671 23.908 120.593 22.872 120.593 21.29C120.593 19.708 121.671 18.686 123.099 18.686C124.513 18.686 125.591 19.708 125.591 21.29C125.591 22.872 124.513 23.908 123.099 23.908Z" fill="white"/>
</svg>
